<?xml version="1.0" encoding="UTF-8"?>
<svg xmlns="http://www.w3.org/2000/svg" xmlns:xlink="http://www.w3.org/1999/xlink" viewBox="0 0 48 48" version="1.1" width="480px" height="480px">
<g id="surface1">
<path style=" fill:#8BC34A;" d="M 43.667969 22.773438 L 27.15625 6.265625 C 25.378906 4.488281 22.472656 4.488281 20.695313 6.265625 L 4.332031 22.625 C 2.554688 24.402344 2.554688 27.3125 4.332031 29.089844 L 14.015625 38.769531 C 15.789063 40.546875 17.117188 42 19.628906 42 L 28.519531 42 C 31.03125 42 32.359375 40.546875 34.136719 38.769531 L 43.667969 29.238281 C 45.445313 27.460938 45.445313 24.550781 43.667969 22.773438 Z M 19.4375 33.101563 L 18.625 33.101563 C 18.359375 33.101563 17.988281 32.945313 17.800781 32.757813 L 16.191406 31.152344 C 16.003906 30.964844 16.003906 30.65625 16.191406 30.46875 L 23.582031 23.082031 C 23.769531 22.894531 24.074219 22.894531 24.265625 23.082031 L 26.761719 25.578125 C 26.949219 25.765625 26.949219 26.070313 26.761719 26.261719 L 20.261719 32.761719 C 20.074219 32.945313 19.703125 33.101563 19.4375 33.101563 Z M 26.785156 36.023438 L 25.152344 37.652344 C 24.964844 37.839844 24.59375 37.992188 24.328125 37.992188 L 23.519531 37.992188 C 23.253906 37.992188 22.882813 37.839844 22.691406 37.652344 L 21.085938 36.046875 C 20.898438 35.855469 20.898438 35.550781 21.085938 35.363281 L 23.605469 32.84375 C 23.792969 32.65625 24.101563 32.65625 24.289063 32.84375 L 26.785156 35.339844 C 26.972656 35.527344 26.972656 35.835938 26.785156 36.023438 Z M 26.8125 16.488281 L 15.402344 27.898438 C 15.214844 28.085938 14.84375 28.242188 14.574219 28.242188 L 13.765625 28.242188 C 13.5 28.242188 13.128906 28.085938 12.941406 27.898438 L 11.332031 26.292969 C 11.144531 26.105469 11.144531 25.796875 11.332031 25.609375 L 23.632813 13.308594 C 23.820313 13.121094 24.128906 13.121094 24.316406 13.308594 L 26.8125 15.804688 C 27 15.992188 27 16.300781 26.8125 16.488281 Z "/>
</g>
</svg>
