<?xml version='1.0' encoding='UTF-8'?>
<!DOCTYPE svg PUBLIC "-//W3C//DTD SVG 1.0//EN" "http://www.w3.org/TR/2001/REC-SVG-20010904/DTD/svg10.dtd">
<svg viewBox="0 0 1120 560" xmlns="http://www.w3.org/2000/svg" xmlns:inkspace="http://www.inkscape.org/namespaces/inkscape" xmlns:xlink="http://www.w3.org/1999/xlink">
  <defs id="defs_block">
    <filter height="1.504" id="filter_blur" inkspace:collect="always" width="1.1575" x="-0.07875" y="-0.252">
      <feGaussianBlur id="feGaussianBlur3780" inkspace:collect="always" stdDeviation="4.2" />
    </filter>
  </defs>
  <title>blockdiag</title>
  <desc>blockdiag {
  // ノードのメトリックスの設定
  node_width = 200;  // デフォルト値は 128
  node_height = 100;  // デフォルト値は 40

  // Set span metrix
  span_width = 240;  // default value is 64
  span_height = 120;  // default value is 40

  // set default shape
  default_shape = roundedbox;  // default value is 'box'

  // デフォルトの色の設定
  default_node_color = lightblue;
  default_group_color = "#7777FF";
  default_linecolor = blue;
  default_textcolor = red;

  甲 -&gt; 乙 [label = "Use long long\nedge label"];
  甲 -&gt; 丙;

  group {
    丙;
  }
}</desc>
  <rect fill="rgb(119,119,255)" height="160" style="filter:url(#filter_blur)" width="260" x="650" y="310" />
  <path d="M 251 126 L 435 126 A8,8 0 0 1 443 134 L 443 218 A8,8 0 0 1 435 226 L 251 226 A8,8 0 0 1 243 218 L 243 134 A8,8 0 0 1 251 126" fill="rgb(0,0,0)" stroke="rgb(0,0,0)" style="filter:url(#filter_blur);opacity:0.7;fill-opacity:1" />
  <path d="M 691 126 L 875 126 A8,8 0 0 1 883 134 L 883 218 A8,8 0 0 1 875 226 L 691 226 A8,8 0 0 1 683 218 L 683 134 A8,8 0 0 1 691 126" fill="rgb(0,0,0)" stroke="rgb(0,0,0)" style="filter:url(#filter_blur);opacity:0.7;fill-opacity:1" />
  <path d="M 691 346 L 875 346 A8,8 0 0 1 883 354 L 883 438 A8,8 0 0 1 875 446 L 691 446 A8,8 0 0 1 683 438 L 683 354 A8,8 0 0 1 691 346" fill="rgb(0,0,0)" stroke="rgb(0,0,0)" style="filter:url(#filter_blur);opacity:0.7;fill-opacity:1" />
  <path d="M 248 120 L 432 120 A8,8 0 0 1 440 128 L 440 212 A8,8 0 0 1 432 220 L 248 220 A8,8 0 0 1 240 212 L 240 128 A8,8 0 0 1 248 120" fill="rgb(173,216,230)" stroke="rgb(0,0,255)" />
  <text fill="rgb(255,0,0)" font-family="sans-serif" font-size="11" font-style="normal" font-weight="normal" text-anchor="middle" textLength="11" x="340.5" y="176">甲</text>
  <path d="M 688 120 L 872 120 A8,8 0 0 1 880 128 L 880 212 A8,8 0 0 1 872 220 L 688 220 A8,8 0 0 1 680 212 L 680 128 A8,8 0 0 1 688 120" fill="rgb(173,216,230)" stroke="rgb(0,0,255)" />
  <text fill="rgb(255,0,0)" font-family="sans-serif" font-size="11" font-style="normal" font-weight="normal" text-anchor="middle" textLength="11" x="780.5" y="175">乙</text>
  <path d="M 688 340 L 872 340 A8,8 0 0 1 880 348 L 880 432 A8,8 0 0 1 872 440 L 688 440 A8,8 0 0 1 680 432 L 680 348 A8,8 0 0 1 688 340" fill="rgb(173,216,230)" stroke="rgb(0,0,255)" />
  <text fill="rgb(255,0,0)" font-family="sans-serif" font-size="11" font-style="normal" font-weight="normal" text-anchor="middle" textLength="11" x="780.5" y="396">丙</text>
  <path d="M 440 170 L 672 170" fill="none" stroke="rgb(0,0,255)" />
  <polygon fill="rgb(0,0,255)" points="679,170 672,166 672,174 679,170" stroke="rgb(0,0,255)" />
  <path d="M 440 170 L 560 170" fill="none" stroke="rgb(0,0,255)" />
  <path d="M 560 170 L 560 390" fill="none" stroke="rgb(0,0,255)" />
  <path d="M 560 390 L 672 390" fill="none" stroke="rgb(0,0,255)" />
  <polygon fill="rgb(0,0,255)" points="679,390 672,386 672,394 679,390" stroke="rgb(0,0,255)" />
  <rect fill="white" height="30" stroke="rgb(0,0,0)" width="87" x="517" y="115" />
  <text fill="rgb(255,0,0)" font-family="sans-serif" font-size="11" font-style="normal" font-weight="normal" text-anchor="middle" textLength="71" x="560.5" y="129">Use long long</text>
  <text fill="rgb(255,0,0)" font-family="sans-serif" font-size="11" font-style="normal" font-weight="normal" text-anchor="middle" textLength="53" x="560.5" y="143">edge label</text>
</svg>
