<?xml version="1.0" encoding="UTF-8" standalone="no"?><svg xmlns="http://www.w3.org/2000/svg" xmlns:xlink="http://www.w3.org/1999/xlink" contentScriptType="application/ecmascript" contentStyleType="text/css" height="182px" preserveAspectRatio="none" style="width:149px;height:182px;" version="1.1" viewBox="0 0 149 182" width="149px" zoomAndPan="magnify"><defs><filter height="300%" id="f11zmzwppwjajx" width="300%" x="-1" y="-1"><feGaussianBlur result="blurOut" stdDeviation="2.0"/><feColorMatrix in="blurOut" result="blurOut2" type="matrix" values="0 0 0 0 0 0 0 0 0 0 0 0 0 0 0 0 0 0 .4 0"/><feOffset dx="4.0" dy="4.0" in="blurOut2" result="blurOut3"/><feBlend in="SourceGraphic" in2="blurOut3" mode="normal"/></filter></defs><g><!--MD5=[a68bb9eee1b6fc6c4d127d53658a01b9]
class 動物--><rect fill="#FEFECE" filter="url(#f11zmzwppwjajx)" height="48" id="動物" style="stroke: #A80036; stroke-width: 1.5;" width="56" x="40" y="7"/><ellipse cx="55" cy="23" fill="#ADD1B2" rx="11" ry="11" style="stroke: #A80036; stroke-width: 1.0;"/><path d="M55.2344,29.7031 C56.3906,29.7031 57.4844,29.2188 58.3125,28.1875 L56.8906,26.6719 C56.5,27.2188 56.0313,27.5313 55.4688,27.5313 C54.2813,27.5313 53.2656,26.3906 53.2656,23.1563 C53.2656,20 54.3281,18.8281 55.3594,18.8281 C55.9531,18.8281 56.3281,19.125 56.75,19.625 L58.1719,18.0625 C57.5,17.3125 56.5313,16.6719 55.25,16.6719 C52.8281,16.6719 50.6875,18.6406 50.6875,23.2656 C50.6875,27.9063 52.8281,29.7031 55.2344,29.7031 Z "/><text fill="#000000" font-family="sans-serif" font-size="12" lengthAdjust="spacingAndGlyphs" textLength="24" x="69" y="28.232">動物</text><line style="stroke: #A80036; stroke-width: 1.5;" x1="41" x2="95" y1="39" y2="39"/><line style="stroke: #A80036; stroke-width: 1.5;" x1="41" x2="95" y1="47" y2="47"/><!--MD5=[b6db628a84c62d397623ff6f378470e2]
class 犬--><rect fill="#FEFECE" filter="url(#f11zmzwppwjajx)" height="48" id="犬" style="stroke: #A80036; stroke-width: 1.5;" width="44" x="7" y="115"/><ellipse cx="22" cy="131" fill="#ADD1B2" rx="11" ry="11" style="stroke: #A80036; stroke-width: 1.0;"/><path d="M22.2344,137.7031 C23.3906,137.7031 24.4844,137.2188 25.3125,136.1875 L23.8906,134.6719 C23.5,135.2188 23.0313,135.5313 22.4688,135.5313 C21.2813,135.5313 20.2656,134.3906 20.2656,131.1563 C20.2656,128 21.3281,126.8281 22.3594,126.8281 C22.9531,126.8281 23.3281,127.125 23.75,127.625 L25.1719,126.0625 C24.5,125.3125 23.5313,124.6719 22.25,124.6719 C19.8281,124.6719 17.6875,126.6406 17.6875,131.2656 C17.6875,135.9063 19.8281,137.7031 22.2344,137.7031 Z "/><text fill="#000000" font-family="sans-serif" font-size="12" lengthAdjust="spacingAndGlyphs" textLength="12" x="36" y="136.232">犬</text><line style="stroke: #A80036; stroke-width: 1.5;" x1="8" x2="50" y1="147" y2="147"/><line style="stroke: #A80036; stroke-width: 1.5;" x1="8" x2="50" y1="155" y2="155"/><!--MD5=[d0b3853bd17649d7118f47458f56d3d7]
class 猫--><rect fill="#FEFECE" filter="url(#f11zmzwppwjajx)" height="48" id="猫" style="stroke: #A80036; stroke-width: 1.5;" width="44" x="86" y="115"/><ellipse cx="101" cy="131" fill="#ADD1B2" rx="11" ry="11" style="stroke: #A80036; stroke-width: 1.0;"/><path d="M101.2344,137.7031 C102.3906,137.7031 103.4844,137.2188 104.3125,136.1875 L102.8906,134.6719 C102.5,135.2188 102.0313,135.5313 101.4688,135.5313 C100.2813,135.5313 99.2656,134.3906 99.2656,131.1563 C99.2656,128 100.3281,126.8281 101.3594,126.8281 C101.9531,126.8281 102.3281,127.125 102.75,127.625 L104.1719,126.0625 C103.5,125.3125 102.5313,124.6719 101.25,124.6719 C98.8281,124.6719 96.6875,126.6406 96.6875,131.2656 C96.6875,135.9063 98.8281,137.7031 101.2344,137.7031 Z "/><text fill="#000000" font-family="sans-serif" font-size="12" lengthAdjust="spacingAndGlyphs" textLength="12" x="115" y="136.232">猫</text><line style="stroke: #A80036; stroke-width: 1.5;" x1="87" x2="129" y1="147" y2="147"/><line style="stroke: #A80036; stroke-width: 1.5;" x1="87" x2="129" y1="155" y2="155"/><!--MD5=[688133859087f1bbbb9b5298f120cc42]
reverse link 動物 to 犬--><path d="M52.3544,74.3264 C47.3692,88.1315 42.034,102.9059 37.7231,114.8436 " fill="none" id="動物&lt;-犬" style="stroke: #A80036; stroke-width: 1.0;"/><polygon fill="none" points="45.8708,71.6709,59.2476,55.2373,59.0386,76.4259,45.8708,71.6709" style="stroke: #A80036; stroke-width: 1.0;"/><!--MD5=[535273c25dddea561fdc346b10226674]
reverse link 動物 to 猫--><path d="M84.0468,74.3264 C89.1598,88.1315 94.6318,102.9059 99.0532,114.8436 " fill="none" id="動物&lt;-猫" style="stroke: #A80036; stroke-width: 1.0;"/><polygon fill="none" points="77.3589,76.4235,76.9768,55.2373,90.4874,71.5611,77.3589,76.4235" style="stroke: #A80036; stroke-width: 1.0;"/><!--MD5=[699e507f5004c3725523b82aa16286a1]
@startuml
動物 <|- - 犬
動物 <|- - 猫
@enduml

PlantUML version 1.2020.13(Sat Jun 13 21:26:38 JST 2020)
(GPL source distribution)
Java Runtime: OpenJDK Runtime Environment
JVM: OpenJDK 64-Bit Server VM
Default Encoding: UTF-8
Language: ja
Country: JP
--></g></svg>